<?xml version="1.0" encoding="utf-8"?>
<svg class="header__logo" preserveAspectRatio="xMinYMid meet" enable-background="new 0 0 615 100" height="35" viewBox="0 0 615 100" width="220" xmlns="http://www.w3.org/2000/svg">
  <defs>
    <style bxFonts="Aldrich">@import url(https://fonts.googleapis.com/css2?family=Aldrich%3Aital%2Cwght%400%2C400&amp;display=swap);</style>
  </defs>
  <g clip-rule="evenodd" fill-rule="evenodd">
    <g fill="#fff">
      <path d="m21.1 55.1c-.5-2.6-.6-5.1-.3-7.6l-20.6-1.9c-.4 4.3-.2 8.6.6 13s2.1 8.6 3.9 12.5l18.7-8.7c-1-2.3-1.8-4.7-2.3-7.3"/>
      <path d="m27.6 68.8-15.9 13.3c4.7 5.6 10.6 10.1 17.2 13.2l8.7-18.7c-3.8-1.9-7.3-4.5-10-7.8"/>
      <path d="m55.1 78.9c-2.6.5-5.2.6-7.6.3l-1.8 20.6c4.3.4 8.6.2 13-.6 1.4-.3 2.9-.6 4.3-.9l-5.4-20c-.8.2-1.7.4-2.5.6"/>
      <path d="m44.9 21.1c3.5-.6 7.1-.6 10.4 0l8.9-19.1c-7.2-2.1-15-2.7-22.9-1.3-19.7 3.5-34.7 18.2-39.6 36.4l20 5.4c2.9-10.7 11.6-19.3 23.2-21.4"/>
      <path d="m68.8 72.5 13.3 15.8c3.3-2.8 6.3-6.1 8.8-9.6l-16.9-11.9c-1.5 2.1-3.2 4-5.2 5.7"/>
      <path d="m99.8 45.6-20.6 1.8c.2 1.7.2 3.4 0 5.1l20.6 1.8c.3-2.8.3-5.7 0-8.7"/>
      <text style="font-family: Aldrich; font-size: 13.7611px; line-height: 21.61px; paint-order: stroke; text-transform: uppercase; white-space: pre;" transform="matrix(5.300968, 0, 0, 5.029078, -661.188721, -187.244888)" x="151.446" y="51.511">Livescores</text>
    </g>
    <path d="m73.3 0-19.2 41.3 83.1-41.3z" fill="#ff0046"/>
  </g>
</svg>